# xmcd CD database file
#
# Track frame offsets:
#	150
#	23177
#	43716
#	64774
#	86839
#	106766
#	129497
#	150972
#	171781
#	189771
#	217739
#	240094
#	262141
#	284131
#	307697
#
# Disc length: 4470 seconds
#
# Revision: 0
# Processed by: cddbd v1.5.2PL0 Copyright (c) Steve Scherf et al.
# Submitted via: CDex 1.70beta2
#
DISCID=bc11740f
DTITLE=Marc Anthony - Grandes Exitos
DYEAR=1900
DGENRE=Salsa
TTITLE0=Marc Antony - No me Ames ( duo con Jennifer
TTITLE1=Marc Antony - Si tu no te Fueras
TTITLE2=Marc Antony - Necesito Amarte
TTITLE3=Marc Antony - Hasta que te Conoci
TTITLE4=Marc Antony - El Ultimo Beso
TTITLE5=Marc Antony - Te Conozco Bien
TTITLE6=Marc Antony - Nadie Como Ella
TTITLE7=Marc Antony - Te Amare
TTITLE8=Marc Antony - Hasta Ayer
TTITLE9=Marc Antony - Y Hubo Alguien
TTITLE10=Marc Antony - Contra la Corriente
TTITLE11=Marc Antony - No me Conoces
TTITLE12=Marc Antony - No Sabes Como Duele
TTITLE13=Marc Antony - Preciosa
TTITLE14=Marc Antony - Vivir lo Nuestro ( duo con La
EXTD=
EXTT0=
EXTT1=
EXTT2=
EXTT3=
EXTT4=
EXTT5=
EXTT6=
EXTT7=
EXTT8=
EXTT9=
EXTT10=
EXTT11=
EXTT12=
EXTT13=
EXTT14=
PLAYORDER=
